<svg width="131" height="132" viewBox="0 0 131 132" fill="none" xmlns="http://www.w3.org/2000/svg">
<rect width="131" height="132" fill="white"/>
<path d="M74.7327 41.3397H51.0767C50.5376 41.3404 50.0208 41.5556 49.6396 41.9381C49.2584 42.3207 49.044 42.8393 49.0433 43.3803V96.1427L48.7722 96.2257L42.969 98.0092C42.694 98.0933 42.3969 98.0646 42.143 97.9291C41.8891 97.7937 41.6992 97.5627 41.6148 97.2868L24.353 40.7017C24.269 40.4257 24.2976 40.1275 24.4326 39.8727C24.5676 39.6178 24.7978 39.4272 25.0728 39.3427L34.0155 36.5947L59.9407 28.631L68.8834 25.883C69.0195 25.841 69.1625 25.8263 69.3043 25.8398C69.446 25.8533 69.5837 25.8947 69.7095 25.9617C69.8353 26.0287 69.9467 26.1199 70.0373 26.2301C70.1279 26.3403 70.196 26.4674 70.2376 26.604L74.65 41.0676L74.7327 41.3397Z" fill="#AACDFF"/>
<path d="M79.8949 41.0679L74.577 23.636C74.4885 23.3455 74.3439 23.0754 74.1513 22.8411C73.9588 22.6067 73.7221 22.4128 73.4549 22.2703C73.1876 22.1278 72.895 22.0395 72.5937 22.0105C72.2925 21.9816 71.9885 22.0125 71.6991 22.1014L59.1262 25.9636L33.2024 33.9286L20.6295 37.7921C20.0454 37.9721 19.5564 38.3773 19.2697 38.9188C18.983 39.4602 18.9221 40.0937 19.1004 40.6802L37.2758 100.255C37.4206 100.729 37.7128 101.143 38.1095 101.438C38.5062 101.732 38.9866 101.892 39.48 101.892C39.7084 101.892 39.9355 101.858 40.1537 101.79L48.7724 99.1427L49.0435 99.0583V98.774L48.7724 98.857L40.0737 101.53C39.5582 101.688 39.0014 101.634 38.5254 101.38C38.0494 101.126 37.6931 100.694 37.5348 100.177L19.3607 40.5999C19.2822 40.3438 19.2549 40.0746 19.2802 39.8078C19.3055 39.541 19.3831 39.2818 19.5083 39.0451C19.6336 38.8085 19.8042 38.5989 20.0103 38.4285C20.2164 38.258 20.454 38.1301 20.7094 38.0519L33.2823 34.1884L59.2062 26.2248L71.7791 22.3613C71.9729 22.3019 72.1743 22.2717 72.3769 22.2715C72.8117 22.2725 73.2347 22.4131 73.584 22.6729C73.9333 22.9326 74.1906 23.2978 74.3181 23.7149L79.6116 41.0679L79.6957 41.34H79.9776L79.8949 41.0679Z" fill="#347EE8"/>
<path d="M35.6294 39.3872C35.3682 39.387 35.1138 39.3028 34.9037 39.1469C34.6936 38.991 34.5389 38.7717 34.4621 38.5211L32.7161 32.7977C32.6692 32.644 32.6529 32.4824 32.6682 32.3224C32.6835 32.1623 32.73 32.0069 32.8052 31.8649C32.8803 31.7229 32.9826 31.5971 33.1062 31.4948C33.2298 31.3925 33.3723 31.3156 33.5255 31.2686L57.3752 23.9411C57.6846 23.8463 58.0188 23.8786 58.3045 24.0309C58.5902 24.1832 58.804 24.443 58.899 24.7533L60.645 30.4767C60.7394 30.7872 60.7071 31.1226 60.5554 31.4093C60.4037 31.696 60.1448 31.9105 59.8357 32.0059L35.9859 39.3334C35.8704 39.369 35.7502 39.3871 35.6294 39.3872V39.3872Z" fill="#347EE8"/>
<path d="M44.7756 28.1144C46.2729 28.1144 47.4867 26.8963 47.4867 25.3936C47.4867 23.891 46.2729 22.6729 44.7756 22.6729C43.2783 22.6729 42.0645 23.891 42.0645 25.3936C42.0645 26.8963 43.2783 28.1144 44.7756 28.1144Z" fill="#347EE8"/>
<path d="M44.7759 27.1162C45.724 27.1162 46.4926 26.3448 46.4926 25.3933C46.4926 24.4418 45.724 23.6704 44.7759 23.6704C43.8277 23.6704 43.0591 24.4418 43.0591 25.3933C43.0591 26.3448 43.8277 27.1162 44.7759 27.1162Z" fill="#AACDFF"/>
<path d="M100.691 101.196H54.8724C54.567 101.196 54.2741 101.074 54.0581 100.857C53.8421 100.641 53.7206 100.347 53.7202 100.04V44.9447C53.7206 44.6381 53.8421 44.3442 54.0581 44.1274C54.2741 43.9106 54.567 43.7887 54.8724 43.7883H100.691C100.996 43.7887 101.289 43.9106 101.505 44.1274C101.721 44.3442 101.843 44.6381 101.843 44.9447V100.04C101.843 100.347 101.721 100.641 101.505 100.857C101.289 101.074 100.996 101.196 100.691 101.196V101.196Z" fill="#AACDFF"/>
<path d="M79.6116 41.0676H51.0769C50.466 41.0685 49.8804 41.3124 49.4484 41.7459C49.0164 42.1795 48.7733 42.7672 48.7725 43.3803V98.8567L49.0436 98.7737V43.3803C49.0442 42.8393 49.2587 42.3206 49.6399 41.9381C50.021 41.5556 50.5378 41.3404 51.0769 41.3397H79.6957L79.6116 41.0676ZM104.486 41.0676H51.0769C50.466 41.0685 49.8804 41.3124 49.4484 41.7459C49.0164 42.1795 48.7733 42.7672 48.7725 43.3803V105.686C48.7733 106.299 49.0164 106.887 49.4484 107.32C49.8804 107.754 50.466 107.998 51.0769 107.998H104.486C105.097 107.998 105.683 107.754 106.115 107.32C106.547 106.887 106.79 106.299 106.791 105.686V43.3803C106.79 42.7672 106.547 42.1795 106.115 41.7459C105.683 41.3124 105.097 41.0685 104.486 41.0676V41.0676ZM106.52 105.686C106.519 106.227 106.305 106.745 105.923 107.128C105.542 107.511 105.025 107.726 104.486 107.726H51.0769C50.5378 107.726 50.021 107.511 49.6399 107.128C49.2587 106.745 49.0442 106.227 49.0436 105.686V43.3803C49.0442 42.8393 49.2587 42.3206 49.6399 41.9381C50.021 41.5556 50.5378 41.3404 51.0769 41.3397H104.486C105.025 41.3404 105.542 41.5556 105.923 41.9381C106.305 42.3206 106.519 42.8393 106.52 43.3803V105.686Z" fill="#347EE8"/>
<path d="M90.2528 47.0535H65.3103C64.9869 47.0531 64.6768 46.924 64.4481 46.6945C64.2193 46.465 64.0907 46.1538 64.0903 45.8292V39.8435C64.0907 39.5189 64.2194 39.2077 64.4481 38.9781C64.6768 38.7486 64.9869 38.6195 65.3103 38.6191H90.2528C90.5763 38.6195 90.8864 38.7486 91.1151 38.9781C91.3438 39.2077 91.4724 39.5189 91.4728 39.8435V45.8292C91.4724 46.1538 91.3438 46.465 91.1151 46.6945C90.8864 46.924 90.5763 47.0531 90.2528 47.0535V47.0535Z" fill="#347EE8"/>
<path d="M77.7814 39.0272C79.2788 39.0272 80.4926 37.8091 80.4926 36.3065C80.4926 34.8038 79.2788 33.5857 77.7814 33.5857C76.2841 33.5857 75.0703 34.8038 75.0703 36.3065C75.0703 37.8091 76.2841 39.0272 77.7814 39.0272Z" fill="#347EE8"/>
<path d="M77.7817 37.9636C78.6937 37.9636 79.433 37.2216 79.433 36.3064C79.433 35.3911 78.6937 34.6492 77.7817 34.6492C76.8697 34.6492 76.1304 35.3911 76.1304 36.3064C76.1304 37.2216 76.8697 37.9636 77.7817 37.9636Z" fill="#AACDFF"/>
</svg>
