<svg width="131" height="132" viewBox="0 0 131 132" fill="none" xmlns="http://www.w3.org/2000/svg">
<rect width="131" height="132" fill="white"/>
<path d="M36 58C34.8133 58 33.6533 57.6481 32.6666 56.9888C31.6799 56.3295 30.9109 55.3925 30.4567 54.2961C30.0026 53.1997 29.8838 51.9933 30.1153 50.8295C30.3468 49.6656 30.9182 48.5965 31.7574 47.7574C32.5965 46.9182 33.6656 46.3468 34.8295 46.1153C35.9933 45.8838 37.1997 46.0026 38.2961 46.4567C39.3925 46.9108 40.3295 47.6799 40.9888 48.6666C41.6481 49.6533 42 50.8133 42 52C42 53.5913 41.3679 55.1174 40.2426 56.2426C39.1174 57.3679 37.5913 58 36 58V58ZM36 46.2071C34.8542 46.2071 33.7342 46.5468 32.7815 47.1834C31.8288 47.82 31.0863 48.7247 30.6478 49.7833C30.2094 50.8418 30.0946 52.0067 30.3182 53.1304C30.5417 54.2542 31.0934 55.2864 31.9036 56.0966C32.7138 56.9068 33.746 57.4585 34.8698 57.6821C35.9936 57.9056 37.1584 57.7909 38.2169 57.3524C39.2755 56.9139 40.1803 56.1714 40.8168 55.2187C41.4534 54.2661 41.7932 53.146 41.7932 52.0002C41.7932 51.2395 41.6433 50.4861 41.3522 49.7833C41.0611 49.0804 40.6343 48.4418 40.0964 47.9038C39.5584 47.3659 38.9198 46.9392 38.217 46.648C37.5141 46.3569 36.7608 46.2071 36 46.2071V46.2071Z" fill="#A9A9A9"/>
<path d="M95.5 58C94.4122 58 93.3488 57.6481 92.4444 56.9888C91.5399 56.3295 90.8349 55.3925 90.4187 54.2961C90.0024 53.1997 89.8935 51.9933 90.1057 50.8295C90.3179 49.6656 90.8417 48.5965 91.6109 47.7574C92.3801 46.9182 93.3601 46.3468 94.427 46.1153C95.4939 45.8838 96.5998 46.0026 97.6048 46.4567C98.6098 46.9108 99.4687 47.6799 100.073 48.6666C100.677 49.6533 101 50.8133 101 52C101 53.5913 100.421 55.1174 99.3891 56.2426C98.3576 57.3679 96.9587 58 95.5 58V58ZM95.5 46.2071C94.4497 46.2071 93.423 46.5468 92.5497 47.1834C91.6764 47.82 90.9958 48.7247 90.5938 49.7833C90.1919 50.8418 90.0867 52.0067 90.2916 53.1304C90.4966 54.2542 91.0023 55.2864 91.745 56.0966C92.4877 56.9068 93.4339 57.4585 94.464 57.6821C95.4941 57.9056 96.5619 57.7909 97.5322 57.3524C98.5025 56.9139 99.3319 56.1714 99.9154 55.2187C100.499 54.2661 100.81 53.146 100.81 52.0002C100.81 51.2395 100.673 50.4861 100.406 49.7833C100.139 49.0804 99.7481 48.4418 99.255 47.9038C98.7619 47.3659 98.1765 46.9392 97.5322 46.648C96.8879 46.3569 96.1974 46.2071 95.5 46.2071V46.2071Z" fill="#A9A9A9"/>
<path d="M117.376 44.0002H14.624C12.6237 44.0037 11.0027 46.0082 11 48.4822V97.518C11.0027 99.9918 12.6237 101.995 14.624 102H117.376C119.376 101.997 120.997 99.992 121 97.518V48.482C120.997 46.0082 119.376 44.0046 117.376 44V44.0002ZM120.574 97.518C120.572 99.701 119.142 101.47 117.376 101.473H14.624C12.8588 101.47 11.429 99.701 11.4263 97.518V48.482C11.4284 46.299 12.8588 44.53 14.624 44.5275H117.376C119.141 44.5302 120.571 46.299 120.574 48.482L120.574 97.518Z" fill="#A9A9A9"/>
<path d="M37 64H19V77H37V64Z" fill="#A9A9A9"/>
<path d="M63 64H44V77H63V64Z" fill="#A9A9A9"/>
<path d="M88 64H69V77H88V64Z" fill="#A9A9A9"/>
<path d="M113 64H95V77H113V64Z" fill="#A9A9A9"/>
<path d="M37 82H19V95H37V82Z" fill="#A9A9A9"/>
<path d="M63 82H44V95H63V82Z" fill="#A9A9A9"/>
<path d="M88 82H69V95H88V82Z" fill="#A9A9A9"/>
<path d="M113 82H95V95H113V82Z" fill="#A9A9A9"/>
<path d="M50.2776 95L46 89.1324L47.1652 88.2946L50.4396 92.7858L62.9694 80L64 80.9966L50.2776 95Z" fill="#CCCCCC"/>
<path d="M76.2776 77L72 70.7412L73.1652 69.8476L76.4396 74.6382L88.9694 61L90 62.0631L76.2776 77Z" fill="#CCCCCC"/>
<path d="M37 30H36V52H37V30Z" fill="#A9A9A9"/>
<path d="M96 30H95V52H96V30Z" fill="#A9A9A9"/>
<path d="M25.2776 77L21 70.7412L22.1652 69.8476L25.4396 74.6382L37.9694 61L39 62.0631L25.2776 77Z" fill="#CCCCCC"/>
</svg>
