<svg width="131" height="132" viewBox="0 0 131 132" fill="none" xmlns="http://www.w3.org/2000/svg">
<rect width="131" height="132" fill="white"/>
<path d="M93.7935 108.27H38.5811C37.1014 108.268 35.6828 107.68 34.6365 106.633C33.5902 105.587 33.0017 104.168 33 102.689V29.5811C33.0017 28.1014 33.5902 26.6828 34.6365 25.6365C35.6828 24.5902 37.1014 24.0017 38.5811 24H93.7935C95.2732 24.0017 96.6918 24.5902 97.7381 25.6365C98.7844 26.6828 99.373 28.1014 99.3746 29.5811V102.689C99.373 104.168 98.7844 105.587 97.7381 106.633C96.6918 107.68 95.2732 108.268 93.7935 108.27V108.27Z" fill="#A9A9A9"/>
<path d="M89.9127 103.618H42.4623C41.1485 103.617 39.8889 103.094 38.9599 102.165C38.0309 101.236 37.5083 99.9766 37.5068 98.6628V33.607C37.5083 32.2932 38.0309 31.0337 38.9599 30.1047C39.8889 29.1757 41.1485 28.6531 42.4623 28.6516H89.9127C91.2265 28.6531 92.4861 29.1757 93.4151 30.1047C94.3441 31.0337 94.8667 32.2932 94.8681 33.607V98.6628C94.8667 99.9766 94.3441 101.236 93.4151 102.165C92.4861 103.094 91.2265 103.617 89.9127 103.618V103.618Z" fill="white"/>
<path d="M85.179 41.0151H47.1956C47.0328 41.0154 46.8715 40.9835 46.721 40.9213C46.5705 40.8592 46.4338 40.768 46.3185 40.6529C46.2033 40.5379 46.1119 40.4012 46.0495 40.2508C45.9872 40.1004 45.9551 39.9392 45.9551 39.7764C45.9551 39.6135 45.9872 39.4523 46.0495 39.3019C46.1119 39.1515 46.2033 39.0148 46.3185 38.8998C46.4338 38.7847 46.5705 38.6935 46.721 38.6314C46.8715 38.5692 47.0328 38.5374 47.1956 38.5376H85.179C85.3418 38.5374 85.5031 38.5692 85.6536 38.6314C85.8041 38.6935 85.9409 38.7847 86.0561 38.8998C86.1713 39.0148 86.2627 39.1515 86.3251 39.3019C86.3875 39.4523 86.4196 39.6135 86.4196 39.7764C86.4196 39.9392 86.3875 40.1004 86.3251 40.2508C86.2627 40.4012 86.1713 40.5379 86.0561 40.6529C85.9409 40.768 85.8041 40.8592 85.6536 40.9213C85.5031 40.9835 85.3418 41.0154 85.179 41.0151V41.0151Z" fill="#E4E4E4"/>
<path d="M85.1783 45.91H47.1949C46.8663 45.91 46.5512 45.7795 46.3189 45.5472C46.0866 45.3149 45.9561 44.9998 45.9561 44.6712C45.9561 44.3426 46.0866 44.0275 46.3189 43.7952C46.5512 43.5629 46.8663 43.4324 47.1949 43.4324H85.1783C85.5068 43.4324 85.8219 43.5629 86.0543 43.7952C86.2866 44.0275 86.4171 44.3426 86.4171 44.6712C86.4171 44.9998 86.2866 45.3149 86.0543 45.5472C85.8219 45.7795 85.5068 45.91 85.1783 45.91Z" fill="#E4E4E4"/>
<path d="M63.6598 50.8048H47.1949C46.8663 50.8048 46.5512 50.6743 46.3189 50.442C46.0866 50.2096 45.9561 49.8945 45.9561 49.566C45.9561 49.2374 46.0866 48.9223 46.3189 48.69C46.5512 48.4577 46.8663 48.3271 47.1949 48.3271H63.6598C63.9883 48.3271 64.3034 48.4577 64.5357 48.69C64.7681 48.9223 64.8986 49.2374 64.8986 49.566C64.8986 49.8945 64.7681 50.2096 64.5357 50.442C64.3034 50.6743 63.9883 50.8048 63.6598 50.8048Z" fill="#E4E4E4"/>
<path d="M85.179 61.0564H47.1956C47.0328 61.0566 46.8715 61.0247 46.721 60.9626C46.5705 60.9004 46.4338 60.8092 46.3185 60.6942C46.2033 60.5791 46.1119 60.4425 46.0495 60.2921C45.9872 60.1417 45.9551 59.9804 45.9551 59.8176C45.9551 59.6548 45.9872 59.4936 46.0495 59.3432C46.1119 59.1928 46.2033 59.0561 46.3185 58.9411C46.4338 58.826 46.5705 58.7348 46.721 58.6726C46.8715 58.6105 47.0328 58.5786 47.1956 58.5789H85.179C85.3418 58.5786 85.5031 58.6105 85.6536 58.6726C85.8041 58.7348 85.9409 58.826 86.0561 58.9411C86.1713 59.0561 86.2627 59.1928 86.3251 59.3432C86.3875 59.4936 86.4196 59.6548 86.4196 59.8176C86.4196 59.9804 86.3875 60.1417 86.3251 60.2921C86.2627 60.4425 86.1713 60.5791 86.0561 60.6942C85.9409 60.8092 85.8041 60.9004 85.6536 60.9626C85.5031 61.0247 85.3418 61.0566 85.179 61.0564V61.0564Z" fill="#E4E4E4"/>
<path d="M85.1783 65.9515H47.1949C46.8663 65.9515 46.5512 65.821 46.3189 65.5887C46.0866 65.3564 45.9561 65.0413 45.9561 64.7127C45.9561 64.3841 46.0866 64.069 46.3189 63.8367C46.5512 63.6044 46.8663 63.4739 47.1949 63.4739H85.1783C85.5068 63.4739 85.8219 63.6044 86.0543 63.8367C86.2866 64.069 86.4171 64.3841 86.4171 64.7127C86.4171 65.0413 86.2866 65.3564 86.0543 65.5887C85.8219 65.821 85.5068 65.9515 85.1783 65.9515Z" fill="#E4E4E4"/>
<path d="M63.6609 70.8468H47.196C46.8678 70.8463 46.5531 70.7156 46.3212 70.4833C46.0893 70.2511 45.959 69.9362 45.959 69.608C45.959 69.2797 46.0893 68.9649 46.3212 68.7326C46.5531 68.5003 46.8678 68.3696 47.196 68.3691H63.6609C63.9895 68.3691 64.3046 68.4997 64.5369 68.732C64.7692 68.9643 64.8998 69.2794 64.8998 69.608C64.8998 69.9365 64.7692 70.2516 64.5369 70.484C64.3046 70.7163 63.9895 70.8468 63.6609 70.8468Z" fill="#E4E4E4"/>
<path d="M85.179 81.0984H47.1956C47.0328 81.0986 46.8715 81.0667 46.721 81.0046C46.5705 80.9424 46.4338 80.8512 46.3185 80.7362C46.2033 80.6211 46.1119 80.4845 46.0495 80.3341C45.9872 80.1837 45.9551 80.0224 45.9551 79.8596C45.9551 79.6968 45.9872 79.5356 46.0495 79.3851C46.1119 79.2347 46.2033 79.0981 46.3185 78.983C46.4338 78.868 46.5705 78.7768 46.721 78.7146C46.8715 78.6525 47.0328 78.6206 47.1956 78.6209H85.179C85.3418 78.6206 85.5031 78.6525 85.6536 78.7146C85.8041 78.7768 85.9409 78.868 86.0561 78.983C86.1713 79.0981 86.2627 79.2347 86.3251 79.3851C86.3875 79.5356 86.4196 79.6968 86.4196 79.8596C86.4196 80.0224 86.3875 80.1837 86.3251 80.3341C86.2627 80.4845 86.1713 80.6211 86.0561 80.7362C85.9409 80.8512 85.8041 80.9424 85.6536 81.0046C85.5031 81.0667 85.3418 81.0986 85.179 81.0984V81.0984Z" fill="#E4E4E4"/>
<path d="M85.1783 85.9933H47.1949C46.8663 85.9933 46.5512 85.8628 46.3189 85.6304C46.0866 85.3981 45.9561 85.083 45.9561 84.7545C45.9561 84.4259 46.0866 84.1108 46.3189 83.8785C46.5512 83.6461 46.8663 83.5156 47.1949 83.5156H85.1783C85.5068 83.5156 85.8219 83.6461 86.0543 83.8785C86.2866 84.1108 86.4171 84.4259 86.4171 84.7545C86.4171 85.083 86.2866 85.3981 86.0543 85.6304C85.8219 85.8628 85.5068 85.9933 85.1783 85.9933V85.9933Z" fill="#E4E4E4"/>
<path d="M63.6598 90.8881H47.1949C46.8663 90.8881 46.5512 90.7575 46.3189 90.5252C46.0866 90.2929 45.9561 89.9778 45.9561 89.6492C45.9561 89.3207 46.0866 89.0056 46.3189 88.7732C46.5512 88.5409 46.8663 88.4104 47.1949 88.4104H63.6598C63.9883 88.4104 64.3034 88.5409 64.5357 88.7732C64.7681 89.0056 64.8986 89.3207 64.8986 89.6492C64.8986 89.9778 64.7681 90.2929 64.5357 90.5252C64.3034 90.7575 63.9883 90.8881 63.6598 90.8881Z" fill="#E4E4E4"/>
</svg>
