<svg width="131" height="132" viewBox="0 0 131 132" fill="none" xmlns="http://www.w3.org/2000/svg">
<rect width="131" height="132" fill="white"/>
<path d="M77.7327 42.3398H54.0767C53.5376 42.3405 53.0208 42.5557 52.6396 42.9382C52.2584 43.3208 52.044 43.8394 52.0433 44.3804V97.1429L51.7722 97.2258L45.969 99.0093C45.694 99.0935 45.3969 99.0647 45.143 98.9292C44.8891 98.7938 44.6992 98.5628 44.6148 98.287L27.353 41.7018C27.269 41.4258 27.2976 41.1276 27.4326 40.8728C27.5676 40.618 27.7978 40.4273 28.0728 40.3428L37.0155 37.5948L62.9407 29.6311L71.8834 26.8832C72.0195 26.8411 72.1625 26.8264 72.3043 26.8399C72.446 26.8534 72.5837 26.8949 72.7095 26.9618C72.8353 27.0288 72.9467 27.12 73.0373 27.2302C73.1279 27.3404 73.196 27.4675 73.2376 27.6042L77.65 42.0678L77.7327 42.3398Z" fill="#F2F2F2"/>
<path d="M82.8949 42.0679L77.577 24.636C77.4885 24.3455 77.3439 24.0754 77.1513 23.8411C76.9588 23.6067 76.7221 23.4128 76.4549 23.2703C76.1876 23.1278 75.895 23.0395 75.5937 23.0105C75.2925 22.9816 74.9885 23.0125 74.6991 23.1014L62.1262 26.9636L36.2024 34.9286L23.6295 38.7921C23.0454 38.9721 22.5564 39.3773 22.2697 39.9188C21.983 40.4602 21.9221 41.0937 22.1004 41.6802L40.2758 101.255C40.4206 101.729 40.7128 102.143 41.1095 102.438C41.5062 102.732 41.9866 102.892 42.48 102.892C42.7084 102.892 42.9355 102.858 43.1537 102.79L51.7724 100.143L52.0435 100.058V99.774L51.7724 99.857L43.0737 102.53C42.5582 102.688 42.0014 102.634 41.5254 102.38C41.0494 102.126 40.6931 101.694 40.5348 101.177L22.3607 41.5999C22.2822 41.3438 22.2549 41.0746 22.2802 40.8078C22.3055 40.541 22.3831 40.2818 22.5083 40.0451C22.6336 39.8085 22.8042 39.5989 23.0103 39.4285C23.2164 39.258 23.454 39.1301 23.7094 39.0519L36.2823 35.1884L62.2062 27.2248L74.7791 23.3613C74.9729 23.3019 75.1743 23.2717 75.3769 23.2715C75.8117 23.2725 76.2347 23.4131 76.584 23.6729C76.9333 23.9326 77.1906 24.2978 77.3181 24.7149L82.6116 42.0679L82.6957 42.34H82.9776L82.8949 42.0679Z" fill="#E6E6E6"/>
<path d="M38.6294 40.3872C38.3682 40.387 38.1138 40.3028 37.9037 40.1469C37.6936 39.991 37.5389 39.7717 37.4621 39.5211L35.7161 33.7977C35.6692 33.644 35.6529 33.4824 35.6682 33.3224C35.6835 33.1623 35.73 33.0069 35.8052 32.8649C35.8803 32.7229 35.9826 32.5971 36.1062 32.4948C36.2298 32.3925 36.3723 32.3156 36.5255 32.2686L60.3752 24.9411C60.6846 24.8463 61.0188 24.8786 61.3045 25.0309C61.5902 25.1832 61.804 25.443 61.899 25.7533L63.645 31.4767C63.7394 31.7872 63.7071 32.1226 63.5554 32.4093C63.4037 32.696 63.1448 32.9105 62.8357 33.0059L38.9859 40.3334C38.8704 40.369 38.7502 40.3871 38.6294 40.3872V40.3872Z" fill="#A9A9A9"/>
<path d="M47.7756 29.1143C49.2729 29.1143 50.4867 27.8961 50.4867 26.3935C50.4867 24.8909 49.2729 23.6727 47.7756 23.6727C46.2783 23.6727 45.0645 24.8909 45.0645 26.3935C45.0645 27.8961 46.2783 29.1143 47.7756 29.1143Z" fill="#A9A9A9"/>
<path d="M47.7759 28.1163C48.724 28.1163 49.4926 27.3449 49.4926 26.3934C49.4926 25.4419 48.724 24.6705 47.7759 24.6705C46.8277 24.6705 46.0591 25.4419 46.0591 26.3934C46.0591 27.3449 46.8277 28.1163 47.7759 28.1163Z" fill="white"/>
<path d="M103.691 102.197H57.8724C57.567 102.196 57.2741 102.074 57.0581 101.858C56.8421 101.641 56.7206 101.347 56.7202 101.04V45.9448C56.7206 45.6382 56.8421 45.3443 57.0581 45.1275C57.2741 44.9107 57.567 44.7888 57.8724 44.7885H103.691C103.996 44.7888 104.289 44.9107 104.505 45.1275C104.721 45.3443 104.843 45.6382 104.843 45.9448V101.04C104.843 101.347 104.721 101.641 104.505 101.858C104.289 102.074 103.996 102.196 103.691 102.197V102.197Z" fill="#E6E6E6"/>
<path d="M82.6116 42.0677H54.0769C53.466 42.0686 52.8804 42.3125 52.4484 42.7461C52.0164 43.1796 51.7733 43.7673 51.7725 44.3804V99.8568L52.0436 99.7738V44.3804C52.0442 43.8394 52.2587 43.3208 52.6399 42.9382C53.021 42.5557 53.5378 42.3405 54.0769 42.3398H82.6957L82.6116 42.0677ZM107.486 42.0677H54.0769C53.466 42.0686 52.8804 42.3125 52.4484 42.7461C52.0164 43.1796 51.7733 43.7673 51.7725 44.3804V106.686C51.7733 107.299 52.0164 107.887 52.4484 108.32C52.8804 108.754 53.466 108.998 54.0769 108.999H107.486C108.097 108.998 108.683 108.754 109.115 108.32C109.547 107.887 109.79 107.299 109.791 106.686V44.3804C109.79 43.7673 109.547 43.1796 109.115 42.7461C108.683 42.3125 108.097 42.0686 107.486 42.0677V42.0677ZM109.52 106.686C109.519 107.227 109.305 107.746 108.923 108.128C108.542 108.511 108.025 108.726 107.486 108.727H54.0769C53.5378 108.726 53.021 108.511 52.6399 108.128C52.2587 107.746 52.0442 107.227 52.0436 106.686V44.3804C52.0442 43.8394 52.2587 43.3208 52.6399 42.9382C53.021 42.5557 53.5378 42.3405 54.0769 42.3398H107.486C108.025 42.3405 108.542 42.5557 108.923 42.9382C109.305 43.3208 109.519 43.8394 109.52 44.3804V106.686Z" fill="#E6E6E6"/>
<path d="M93.2528 48.0534H68.3103C67.9869 48.053 67.6768 47.9239 67.4481 47.6944C67.2193 47.4649 67.0907 47.1537 67.0903 46.829V40.8434C67.0907 40.5188 67.2194 40.2076 67.4481 39.978C67.6768 39.7485 67.9869 39.6194 68.3103 39.619H93.2528C93.5763 39.6194 93.8864 39.7485 94.1151 39.978C94.3438 40.2076 94.4724 40.5188 94.4728 40.8434V46.829C94.4724 47.1537 94.3438 47.4649 94.1151 47.6944C93.8864 47.9239 93.5763 48.053 93.2528 48.0534V48.0534Z" fill="#A9A9A9"/>
<path d="M80.7814 40.0272C82.2788 40.0272 83.4926 38.8091 83.4926 37.3065C83.4926 35.8038 82.2788 34.5857 80.7814 34.5857C79.2841 34.5857 78.0703 35.8038 78.0703 37.3065C78.0703 38.8091 79.2841 40.0272 80.7814 40.0272Z" fill="#A9A9A9"/>
<path d="M80.7817 38.9637C81.6937 38.9637 82.433 38.2217 82.433 37.3065C82.433 36.3912 81.6937 35.6493 80.7817 35.6493C79.8697 35.6493 79.1304 36.3912 79.1304 37.3065C79.1304 38.2217 79.8697 38.9637 80.7817 38.9637Z" fill="white"/>
</svg>
