<svg width="131" height="132" viewBox="0 0 131 132" fill="none" xmlns="http://www.w3.org/2000/svg">
<rect width="131" height="132" fill="white"/>
<path d="M29.858 44.716C31.4364 44.716 32.716 43.4364 32.716 41.858C32.716 40.2796 31.4364 39 29.858 39C28.2796 39 27 40.2796 27 41.858C27 43.4364 28.2796 44.716 29.858 44.716Z" fill="#AACDFF"/>
<path opacity="0.2" d="M30.7366 39.2698C31.2434 39.7287 31.5686 40.3542 31.6531 41.0327C31.7376 41.7111 31.5757 42.3973 31.197 42.9665C30.8183 43.5357 30.2478 43.95 29.5894 44.1341C28.931 44.3182 28.2284 44.2599 27.6094 43.9697C27.9135 44.2469 28.274 44.4551 28.6662 44.58C29.0583 44.7049 29.4728 44.7435 29.8812 44.6933C30.2897 44.6431 30.6824 44.5052 31.0326 44.289C31.3828 44.0728 31.6821 43.7836 31.9101 43.4409C32.138 43.0983 32.2893 42.7105 32.3534 42.304C32.4175 41.8975 32.393 41.4819 32.2815 41.0858C32.1701 40.6896 31.9743 40.3223 31.7077 40.0088C31.441 39.6954 31.1098 39.4433 30.7366 39.2698V39.2698Z" fill="black"/>
<path d="M103.004 47.8122C106.885 47.8122 110.03 46.5326 110.03 44.9542C110.03 43.3758 106.885 42.0962 103.004 42.0962C99.1241 42.0962 95.9785 43.3758 95.9785 44.9542C95.9785 46.5326 99.1241 47.8122 103.004 47.8122Z" fill="#AACDFF"/>
<path opacity="0.2" d="M102.714 42C102.473 42 102.235 42.0049 102 42.0146C105.545 42.1603 108.311 43.3777 108.311 44.858C108.311 46.3383 105.545 47.5557 102 47.7013C102.235 47.711 102.473 47.7159 102.714 47.716C106.595 47.716 109.74 46.4364 109.74 44.858C109.74 43.2796 106.595 42 102.714 42Z" fill="black"/>
<path d="M112.174 44.9541H76.9254V41.1435C76.9254 40.954 76.8502 40.7722 76.7162 40.6382C76.5822 40.5042 76.4004 40.429 76.2109 40.429H56.6814C56.4919 40.429 56.3102 40.5042 56.1762 40.6382C56.0422 40.7722 55.9669 40.954 55.9669 41.1435V44.9541H35.4847V42.5724C35.4847 42.3829 35.4094 42.2012 35.2754 42.0672C35.1414 41.9332 34.9597 41.8579 34.7702 41.8579H24.2909C24.1014 41.8579 23.9197 41.9332 23.7857 42.0672C23.6517 42.2012 23.5764 42.3829 23.5764 42.5724V44.9541H20.7184C20.6245 44.954 20.5316 44.9724 20.4448 45.0082C20.3581 45.0441 20.2793 45.0967 20.2129 45.1631C20.1465 45.2295 20.0939 45.3083 20.058 45.395C20.0222 45.4818 20.0038 45.5747 20.0039 45.6686V92.5872C20.0038 92.681 20.0222 92.774 20.058 92.8608C20.0939 92.9475 20.1465 93.0263 20.2129 93.0927C20.2793 93.1591 20.3581 93.2117 20.4448 93.2475C20.5316 93.2834 20.6245 93.3018 20.7184 93.3017H112.174C112.268 93.3018 112.361 93.2834 112.447 93.2475C112.534 93.2117 112.613 93.1591 112.679 93.0927C112.746 93.0263 112.798 92.9475 112.834 92.8608C112.87 92.774 112.889 92.681 112.888 92.5872V45.6686C112.889 45.5747 112.87 45.4818 112.834 45.395C112.798 45.3083 112.746 45.2295 112.679 45.1631C112.613 45.0967 112.534 45.0441 112.447 45.0082C112.361 44.9724 112.268 44.954 112.174 44.9541V44.9541Z" fill="#347EE8"/>
<path opacity="0.2" d="M112.17 89.8026H20.7145C20.6206 89.8028 20.5277 89.7844 20.4409 89.7485C20.3542 89.7126 20.2754 89.66 20.209 89.5936C20.1426 89.5273 20.09 89.4485 20.0541 89.3617C20.0183 89.275 19.9999 89.182 20 89.0881V92.4225C19.9999 92.5163 20.0183 92.6093 20.0541 92.696C20.09 92.7828 20.1426 92.8616 20.209 92.928C20.2754 92.9943 20.3542 93.047 20.4409 93.0828C20.5277 93.1187 20.6206 93.1371 20.7145 93.1369H112.17C112.264 93.1371 112.357 93.1187 112.444 93.0828C112.53 93.047 112.609 92.9943 112.676 92.928C112.742 92.8616 112.795 92.7828 112.83 92.696C112.866 92.6093 112.885 92.5163 112.885 92.4225V89.0881C112.885 89.182 112.866 89.275 112.83 89.3617C112.795 89.4485 112.742 89.5273 112.676 89.5936C112.609 89.66 112.53 89.7126 112.444 89.7485C112.357 89.7844 112.264 89.8028 112.17 89.8026Z" fill="black"/>
<path opacity="0.2" d="M112.888 66.8655H20.0039V75.9158H112.888V66.8655Z" fill="black"/>
<path opacity="0.2" d="M112.888 62.3401H20.0039V71.3904H112.888V62.3401Z" fill="black"/>
<path d="M112.888 64.4836H20.0039V73.5339H112.888V64.4836Z" fill="#AACDFF"/>
<path d="M66.4463 87.1093C76.4429 87.1093 84.5468 79.0054 84.5468 69.0088C84.5468 59.0121 76.4429 50.9082 66.4463 50.9082C56.4496 50.9082 48.3457 59.0121 48.3457 69.0088C48.3457 79.0054 56.4496 87.1093 66.4463 87.1093Z" fill="#AACDFF"/>
<path opacity="0.2" d="M80.3886 57.4663C82.6912 61.3893 83.4322 66.0355 82.4642 70.4801C81.4961 74.9247 78.8899 78.8418 75.1644 81.4519C71.4389 84.0619 66.8672 85.1734 62.3592 84.5652C57.8512 83.957 53.7375 81.6737 50.8369 78.1696C52.1019 80.3253 53.7997 82.1956 55.8233 83.6627C57.8469 85.1298 60.1524 86.1619 62.5945 86.694C65.0367 87.226 67.5626 87.2464 70.013 86.754C72.4635 86.2616 74.7854 85.267 76.8325 83.8329C78.8796 82.3987 80.6074 80.5562 81.9072 78.4213C83.2069 76.2863 84.0504 73.9054 84.3845 71.4284C84.7186 68.9513 84.536 66.432 83.8483 64.029C83.1606 61.626 81.9826 59.3915 80.3886 57.4663V57.4663Z" fill="black"/>
<path d="M66.4458 82.4792C73.8852 82.4792 79.916 76.4484 79.916 69.009C79.916 61.5696 73.8852 55.5388 66.4458 55.5388C59.0064 55.5388 52.9756 61.5696 52.9756 69.009C52.9756 76.4484 59.0064 82.4792 66.4458 82.4792Z" fill="#347EE8"/>
<path d="M76.925 69.0088C76.9272 70.4314 76.6378 71.8393 76.0748 73.1458C75.7732 73.8504 75.3938 74.519 74.9435 75.1392C74.0558 76.3707 72.9112 77.3946 71.5888 78.1401C70.2664 78.8856 68.7978 79.3349 67.2846 79.4569C65.7714 79.5788 64.2498 79.3705 62.8251 78.8465C61.4004 78.3224 60.1065 77.495 59.0331 76.4215C57.9596 75.3481 57.1322 74.0542 56.6081 72.6295C56.0841 71.2048 55.8758 69.6832 55.9977 68.17C56.1197 66.6568 56.569 65.1882 57.3145 63.8658C58.06 62.5434 59.0839 61.3988 60.3154 60.5111C60.9356 60.0608 61.6042 59.6813 62.3088 59.3798C63.903 58.6952 65.6421 58.417 67.3703 58.5703C69.0984 58.7235 70.7615 59.3034 72.2103 60.2578C73.6591 61.2123 74.8482 62.5114 75.6711 64.0388C76.494 65.5662 76.9249 67.2739 76.925 69.0088V69.0088Z" fill="#AACDFF"/>
<path opacity="0.2" d="M76.814 67.4821C76.4233 64.8176 75.0202 62.4064 72.8968 60.7502C73.8169 62.1911 74.3706 63.8351 74.5096 65.539C74.6486 67.2429 74.3686 68.955 73.694 70.5258C73.3925 71.2304 73.013 71.8991 72.5628 72.5193C71.7382 73.6631 70.6912 74.6287 69.4845 75.3581C68.2778 76.0875 66.9362 76.5657 65.5402 76.764C64.1442 76.9624 62.7225 76.8768 61.3604 76.5124C59.9983 76.148 58.7238 75.5123 57.6133 74.6434C58.5323 76.0859 59.7907 77.2814 61.2783 78.1254C62.766 78.9695 64.4377 79.4363 66.1474 79.4852C67.8572 79.5341 69.5528 79.1636 71.0863 78.406C72.6198 77.6484 73.9444 76.5267 74.9444 75.1391C75.3947 74.5189 75.7741 73.8503 76.0757 73.1457C76.8412 71.3625 77.0968 69.4019 76.814 67.4821V67.4821Z" fill="black"/>
</svg>
