<svg width="131" height="132" viewBox="0 0 131 132" fill="none" xmlns="http://www.w3.org/2000/svg">
<rect width="131" height="132" fill="white"/>
<path d="M94.3951 92.8658C94.3708 92.8658 94.3555 92.8652 94.3502 92.8649L91.4447 92.8652V92.4368H94.3607C94.4282 92.4392 95.8057 92.4781 97.0748 90.9381C98.9661 88.643 100.519 82.9614 97.1779 68.9278C92.6851 50.0577 96.4323 33.387 98.2519 27.0955C98.3416 26.7843 98.3576 26.4564 98.2988 26.1379C98.2399 25.8194 98.1078 25.5189 97.9129 25.2602C97.7179 25.0015 97.4655 24.7917 97.1755 24.6473C96.8856 24.503 96.566 24.428 96.2421 24.4284H52.8504C52.5205 24.4288 52.1954 24.5071 51.9014 24.6567C51.6074 24.8064 51.3528 25.0232 51.1583 25.2897C50.3875 26.35 49.3296 28.387 48.6677 32.0703L48.2461 31.9945C48.9224 28.2313 50.0146 26.1344 50.8118 25.0378C51.0461 24.7168 51.3528 24.4554 51.707 24.2751C52.0612 24.0948 52.4529 24.0005 52.8504 24H96.2421C96.6324 23.9996 97.0175 24.09 97.3669 24.2641C97.7163 24.4381 98.0204 24.691 98.2553 25.0028C98.4901 25.3146 98.6493 25.6767 98.7201 26.0606C98.791 26.4444 98.7716 26.8395 98.6635 27.2146C96.8532 33.4734 93.1254 50.0576 97.5947 68.8287C100.983 83.0596 99.3541 88.8643 97.3911 91.228C96.0963 92.7869 94.6696 92.8658 94.3951 92.8658Z" fill="#347EE8"/>
<path d="M86.5767 100.684C86.5525 100.684 86.5372 100.684 86.5319 100.683L83.6264 100.684V100.255H86.5424C86.6102 100.257 87.9873 100.296 89.2565 98.7565C91.1478 96.4614 92.7009 90.7797 89.3596 76.7462C84.8667 57.8761 88.614 41.2054 90.4336 34.9139C90.5232 34.6026 90.5393 34.2748 90.4804 33.9563C90.4216 33.6377 90.2895 33.3372 90.0945 33.0786C89.8996 32.8199 89.6472 32.61 89.3572 32.4657C89.0672 32.3213 88.7477 32.2464 88.4237 32.2468H45.0321C44.7022 32.2472 44.377 32.3254 44.083 32.4751C43.789 32.6247 43.5344 32.8416 43.34 33.1081C42.5691 34.1684 41.5113 36.2054 40.8494 39.8886L40.4277 39.8129C41.104 36.0497 42.1963 33.9527 42.9935 32.8562C43.2277 32.5351 43.5344 32.2738 43.8886 32.0935C44.2429 31.9132 44.6346 31.8189 45.0321 31.8184H88.4237C88.8141 31.818 89.1992 31.9084 89.5486 32.0824C89.898 32.2565 90.2021 32.5094 90.437 32.8211C90.6718 33.1329 90.8309 33.4951 90.9018 33.8789C90.9726 34.2628 90.9533 34.6579 90.8452 35.0329C89.0349 41.2918 85.3071 57.876 89.7764 76.647C93.1647 90.878 91.5358 96.6827 89.5728 99.0463C88.2779 100.605 86.8513 100.684 86.5767 100.684Z" fill="#347EE8"/>
<path d="M78.7586 108.502C78.7343 108.502 78.7191 108.502 78.7137 108.501L35.9909 108.502C35.5796 108.502 35.1744 108.402 34.8108 108.209C34.4472 108.017 34.1364 107.739 33.9054 107.398C33.6744 107.058 33.5303 106.666 33.4858 106.257C33.4413 105.848 33.4977 105.435 33.65 105.053C35.2002 101.18 37.2873 91.8881 33.8496 73.1712C29.7902 51.07 33.4244 43.0826 35.1753 40.6743C35.4096 40.3532 35.7163 40.0919 36.0705 39.9116C36.4247 39.7313 36.8165 39.637 37.214 39.6365H80.6056C80.996 39.6361 81.3811 39.7265 81.7305 39.9005C82.0799 40.0746 82.384 40.3275 82.6188 40.6393C82.8537 40.951 83.0128 41.3132 83.0837 41.697C83.1545 42.0809 83.1351 42.476 83.027 42.851C81.2168 49.1099 77.489 65.6941 81.9583 84.4652C85.3466 98.6961 83.7178 104.501 81.7547 106.864C80.4598 108.423 79.0332 108.502 78.7586 108.502ZM37.214 40.0649C36.8841 40.0653 36.5589 40.1435 36.2649 40.2932C35.9709 40.4428 35.7163 40.6597 35.5218 40.9262C33.8034 43.2898 30.2415 51.1558 34.2709 73.0938C37.555 90.9739 35.9622 100.429 34.0477 105.212C33.9187 105.527 33.8703 105.87 33.9068 106.209C33.9433 106.548 34.0637 106.873 34.257 107.153C34.4487 107.437 34.707 107.669 35.0093 107.829C35.3116 107.99 35.6487 108.074 35.9909 108.073H78.7243C78.7917 108.077 80.1692 108.115 81.4384 106.575C83.3297 104.279 84.8828 98.5979 81.5415 84.5643C77.0486 65.6942 80.7959 49.0235 82.6155 42.732C82.7051 42.4208 82.7212 42.0929 82.6623 41.7744C82.6035 41.4558 82.4714 41.1554 82.2764 40.8967C82.0815 40.638 81.8291 40.4282 81.5391 40.2838C81.2491 40.1394 80.9295 40.0645 80.6056 40.0649H37.214Z" fill="#347EE8"/>
<path d="M73.2245 58.9145H39.1667C38.7123 58.9145 38.2764 58.734 37.955 58.4126C37.6337 58.0912 37.4531 57.6554 37.4531 57.2009C37.4531 56.7464 37.6337 56.3106 37.955 55.9892C38.2764 55.6678 38.7123 55.4873 39.1667 55.4873H73.2245C73.679 55.4873 74.1149 55.6678 74.4362 55.9892C74.7576 56.3106 74.9381 56.7464 74.9381 57.2009C74.9381 57.6554 74.7576 58.0912 74.4362 58.4126C74.1149 58.734 73.679 58.9145 73.2245 58.9145Z" fill="#AACDFF"/>
<path d="M73.2245 66.1975H39.1667C38.7123 66.1975 38.2764 66.0169 37.955 65.6956C37.6337 65.3742 37.4531 64.9383 37.4531 64.4839C37.4531 64.0294 37.6337 63.5935 37.955 63.2722C38.2764 62.9508 38.7123 62.7703 39.1667 62.7703H73.2245C73.679 62.7703 74.1149 62.9508 74.4362 63.2722C74.7576 63.5935 74.9381 64.0294 74.9381 64.4839C74.9381 64.9383 74.7576 65.3742 74.4362 65.6956C74.1149 66.0169 73.679 66.1975 73.2245 66.1975Z" fill="#AACDFF"/>
<path d="M73.2245 73.4802H39.1667C38.7123 73.4802 38.2764 73.2996 37.955 72.9783C37.6337 72.6569 37.4531 72.2211 37.4531 71.7666C37.4531 71.3121 37.6337 70.8762 37.955 70.5549C38.2764 70.2335 38.7123 70.053 39.1667 70.053H73.2245C73.679 70.053 74.1149 70.2335 74.4362 70.5549C74.7576 70.8762 74.9381 71.3121 74.9381 71.7666C74.9381 72.2211 74.7576 72.6569 74.4362 72.9783C74.1149 73.2996 73.679 73.4802 73.2245 73.4802Z" fill="#AACDFF"/>
<path d="M75.7958 80.7631H41.738C41.2835 80.7631 40.8477 80.5826 40.5263 80.2612C40.205 79.9399 40.0244 79.504 40.0244 79.0495C40.0244 78.5951 40.205 78.1592 40.5263 77.8378C40.8477 77.5165 41.2835 77.3359 41.738 77.3359H75.7958C76.2503 77.3359 76.6862 77.5165 77.0075 77.8378C77.3289 78.1592 77.5094 78.5951 77.5094 79.0495C77.5094 79.504 77.3289 79.9399 77.0075 80.2612C76.6862 80.5826 76.2503 80.7631 75.7958 80.7631Z" fill="#AACDFF"/>
<path d="M75.7958 88.0459H41.738C41.2835 88.0459 40.8477 87.8653 40.5263 87.544C40.205 87.2226 40.0244 86.7867 40.0244 86.3323C40.0244 85.8778 40.205 85.4419 40.5263 85.1206C40.8477 84.7992 41.2835 84.6187 41.738 84.6187H75.7958C76.2503 84.6187 76.6862 84.7992 77.0075 85.1206C77.3289 85.4419 77.5094 85.8778 77.5094 86.3323C77.5094 86.7867 77.3289 87.2226 77.0075 87.544C76.6862 87.8653 76.2503 88.0459 75.7958 88.0459Z" fill="#AACDFF"/>
<path d="M55.2317 51.6318H39.1667C38.7123 51.6318 38.2764 51.4513 37.955 51.1299C37.6337 50.8085 37.4531 50.3727 37.4531 49.9182C37.4531 49.4637 37.6337 49.0279 37.955 48.7065C38.2764 48.3851 38.7123 48.2046 39.1667 48.2046H55.2317C55.6862 48.2046 56.1221 48.3851 56.4434 48.7065C56.7648 49.0279 56.9453 49.4637 56.9453 49.9182C56.9453 50.3727 56.7648 50.8085 56.4434 51.1299C56.1221 51.4513 55.6862 51.6318 55.2317 51.6318Z" fill="#AACDFF"/>
<path d="M53.1578 99.7885C53.5036 98.3244 55.128 97.8445 56.4561 97.8982C57.2953 97.9548 58.1276 98.0865 58.9432 98.2917C59.7966 98.4827 60.6417 98.7087 61.4825 98.9485C63.0244 99.3882 64.5504 99.92 66.1178 100.264C67.4226 100.55 68.8405 100.718 70.1417 100.323C71.3925 99.943 72.4536 99.0105 72.794 97.7214C73.1147 96.5066 72.6744 95.1783 71.4972 94.6231C70.4236 94.1168 69.0676 94.3743 68.5355 95.5192C67.9356 96.8101 68.535 98.218 69.485 99.1521C70.0249 99.6591 70.6163 100.108 71.2495 100.492C71.8922 100.93 72.6076 101.251 73.3623 101.439C74.6015 101.703 76.0776 101.313 76.7166 100.13C76.8586 99.8615 76.9441 99.5672 76.9676 99.2648C77.0054 98.8531 76.3626 98.8557 76.325 99.2648C76.2167 100.444 74.8361 100.996 73.8038 100.866C73.1069 100.751 72.4414 100.493 71.8491 100.108C71.2775 99.7745 70.7358 99.3923 70.2302 98.9654C69.3546 98.2077 68.5338 96.9607 69.1218 95.7783C69.6007 94.8155 70.849 94.8251 71.6082 95.446C72.5277 96.198 72.3637 97.5629 71.7573 98.4559C71.0858 99.4447 69.8687 99.8592 68.7212 99.9039C67.4744 99.9525 66.2379 99.6664 65.0463 99.328C63.5656 98.9075 62.0997 98.4369 60.6119 98.0411C59.7672 97.8163 58.9161 97.6135 58.0562 97.4557C57.2431 97.2765 56.408 97.2187 55.578 97.2842C54.2371 97.439 52.8684 98.2195 52.5382 99.6177C52.4432 100.02 53.0627 100.191 53.1578 99.7885L53.1578 99.7885Z" fill="#AACDFF"/>
<path d="M76.769 99.9408C76.6878 99.8732 76.6284 99.783 76.5983 99.6816C76.5682 99.5803 76.5688 99.4723 76.6 99.3713C76.6312 99.2703 76.6916 99.1808 76.7736 99.114C76.8556 99.0473 76.9555 99.0063 77.0608 98.9963C78.2291 98.8835 79.4081 99.0043 80.5292 99.3518L91.9494 102.879C92.0972 102.924 92.2346 102.999 92.3537 103.097C92.4728 103.196 92.5713 103.317 92.6435 103.454C92.7158 103.591 92.7604 103.741 92.7747 103.895C92.7891 104.049 92.7731 104.204 92.7274 104.352C92.6818 104.5 92.6074 104.637 92.5087 104.756C92.4099 104.875 92.2887 104.974 92.1519 105.046C92.0151 105.118 91.8654 105.163 91.7114 105.177C91.5573 105.192 91.402 105.176 91.2541 105.13L79.834 101.603C78.7121 101.258 77.6702 100.693 76.769 99.9408V99.9408Z" fill="#347EE8"/>
</svg>
