<svg width="131" height="132" viewBox="0 0 131 132" fill="none" xmlns="http://www.w3.org/2000/svg">
<rect width="131" height="132" fill="white"/>
<path d="M30.6491 62.4593C30.1779 62.6086 29.6762 62.6296 29.1944 62.5203C28.7127 62.4109 28.2679 62.1751 27.9049 61.8364C27.542 61.4978 27.2736 61.0684 27.1269 60.5915C26.9802 60.1146 26.9603 59.6069 27.0692 59.1198C28.7038 52.2399 34.9193 35.4153 57.5626 28.3388C67.3709 25.2736 76.7771 25.2212 85.5085 28.1821C92.6915 30.6079 97.46 34.4039 99.741 36.2387C100.321 36.7026 100.694 37.3803 100.78 38.1229C100.865 38.8655 100.656 39.612 100.197 40.1983C100.192 40.2056 100.186 40.2128 100.18 40.22C99.7094 40.8082 99.029 41.1856 98.2857 41.2709C97.5424 41.3563 96.7957 41.1428 96.2065 40.6764C92.074 37.3822 79.5331 27.3746 59.2078 33.7266C39.3614 39.929 33.9703 54.4367 32.572 60.3722C32.4658 60.8625 32.2313 61.315 31.893 61.6821C31.5547 62.0493 31.1251 62.3177 30.6491 62.4593L30.6491 62.4593Z" fill="#347EE8"/>
<path d="M92.5393 100.864C92.3144 100.937 92.0812 100.981 91.8453 100.995C74.1605 101.945 62.9087 87.2829 62.4468 86.6716L62.3611 86.5305C62.0792 86.094 55.271 75.7566 58.2682 67.5467C59.6449 63.7934 62.6895 61.1589 67.3433 59.7242C71.6716 58.3899 75.2133 58.7846 78.2279 60.9329C80.6998 62.6832 82.284 65.2934 83.8194 67.814C87.0129 73.0477 88.97 75.7104 95.0399 74.1741C97.705 73.4991 98.9495 71.4196 99.518 69.7997C101.049 65.3918 99.6921 59.3825 96.103 54.8361C91.4661 48.9378 78.4896 39.1411 62.4789 44.0769C55.6418 46.1846 50.0464 50.3382 46.2993 56.0576C43.1951 60.804 41.3905 66.6992 41.3509 72.1967C41.2886 82.4329 49.6948 95.8997 49.7745 96.0217C49.9681 96.3307 50.0988 96.6747 50.1591 97.034C50.2195 97.3934 50.2083 97.7611 50.1263 98.1161C50.0442 98.4712 49.8929 98.8067 49.681 99.1033C49.469 99.4 49.2006 99.6522 48.891 99.8453C48.8824 99.8507 48.8738 99.856 48.8651 99.8613C48.2308 100.256 47.4664 100.386 46.7369 100.223C46.0074 100.06 45.3714 99.6175 44.9662 98.9905C44.5868 98.3747 35.6107 84.0158 35.6831 72.1854C35.7837 59.3621 43.592 44.0581 60.8284 38.7444C68.7954 36.2883 77.1679 36.7011 85.0469 39.925C91.1538 42.439 96.8056 46.6008 100.542 51.3529C105.315 57.4187 106.996 65.3587 104.824 71.5557C103.375 75.6871 100.377 78.5377 96.3913 79.5569C86.0047 82.1936 81.9358 75.5549 78.9683 70.7122C75.9211 65.7476 74.2355 63.4198 68.9689 65.0434C66.077 65.935 64.2954 67.3635 63.5461 69.416C62.5265 72.2218 63.4928 75.8181 64.483 78.3392C64.4932 78.3656 64.5035 78.3919 64.5138 78.4181C65.7833 81.6226 67.7644 84.4981 70.308 86.8283C74.3828 90.5835 81.9473 95.9371 91.5885 95.4209C92.3256 95.3752 93.0507 95.6236 93.6042 96.1114C94.1578 96.5992 94.4945 97.2865 94.5403 98.022C94.5408 98.0309 94.5413 98.0398 94.5418 98.0487C94.5644 98.6724 94.3806 99.2862 94.0186 99.7952C93.6566 100.304 93.1367 100.68 92.5392 100.864L92.5393 100.864Z" fill="#347EE8"/>
<path d="M71.0489 105.873C70.6832 105.987 70.2983 106.024 69.9175 105.985C69.5367 105.945 69.168 105.828 68.8336 105.641C60.1797 100.721 54.1046 94.1031 49.73 84.8281L49.7124 84.7709C46.9553 78.587 45.2956 69.1388 48.9566 61.1533C51.6594 55.2611 56.7327 51.1195 64.0101 48.8636C72.6175 46.1955 80.632 48.1599 87.2098 54.5172C90.2013 57.4513 92.634 60.9086 94.3883 64.7192C94.668 65.4048 94.6675 66.1734 94.3868 66.8586C94.1062 67.5438 93.5681 68.0906 92.8888 68.3808C92.2095 68.6709 91.4437 68.6811 90.757 68.4091C90.0703 68.1371 89.5179 67.6047 89.2193 66.9272C87.7339 63.7468 85.6829 60.8649 83.167 58.4229C78.0969 53.5825 72.203 52.1513 65.6287 54.1891C59.9474 55.9502 56.0353 59.0635 54.0327 63.4438C51.1447 69.7485 52.6316 77.6211 54.7892 82.4662C58.6465 90.6693 63.997 96.488 71.6135 100.811C71.9282 100.989 72.2047 101.227 72.4275 101.512C72.6503 101.798 72.8149 102.124 72.9119 102.473C73.0089 102.823 73.0364 103.188 72.9929 103.547C72.9494 103.907 72.8356 104.255 72.6582 104.571C72.6512 104.583 72.644 104.596 72.6368 104.608C72.282 105.213 71.7161 105.663 71.0489 105.873V105.873Z" fill="#347EE8"/>
<path d="M71.9607 78.0932C73.8444 78.0932 75.3715 76.4273 75.3715 74.3723C75.3715 72.3173 73.8444 70.6514 71.9607 70.6514C70.0769 70.6514 68.5498 72.3173 68.5498 74.3723C68.5498 76.4273 70.0769 78.0932 71.9607 78.0932Z" fill="#347EE8"/>
</svg>
